<?xml version="1.0" encoding="utf-8"?>
<svg version="1.2" baseProfile="tiny" xmlns="http://www.w3.org/2000/svg" xmlns:xlink="http://www.w3.org/1999/xlink" x="0px"
	 y="0px" width="419.07px" height="155.424px" viewBox="0 0 419.07 155.424" overflow="inherit" xml:space="preserve">
<g id="Layer_1">
	<path fill="none" stroke="#000000" stroke-width="0.4807" stroke-linejoin="round" stroke-miterlimit="10" d="M8.322,137.661
		h410.382 M8.322,131.361h410.382 M8.322,125.062h410.382 M8.322,118.761h410.382 M8.322,112.461h410.382 M8.322,137.661V46.311
		 M8.431,137.661V46.311"/>
	<polyline fill-rule="evenodd" stroke="#000000" stroke-width="0.4807" stroke-linejoin="round" stroke-miterlimit="10" points="
		4.992,137.661 3.444,135.52 2.977,134.763 2.148,133.27 1.429,131.505 0.96,129.993 0.601,128.247 0.366,126.483 0.24,124.233 
		0.24,122.974 0.475,120.453 0.834,118.203 2.616,109.293 3.103,106.161 3.444,102.885 3.444,101.265 3.21,98.511 2.851,96.747 
		2.616,95.991 2.022,94.731 0.24,91.978 2.022,89.224 2.616,87.963 2.851,87.207 3.21,85.461 3.444,82.689 3.444,81.069 
		3.103,77.792 2.616,74.661 0.834,65.75 0.475,63.5 0.24,60.98 0.24,59.721 0.366,57.471 0.601,55.707 0.96,53.96 1.429,52.449 
		2.148,50.685 2.977,49.191 3.444,48.435 4.992,46.311 3.57,49.065 2.742,50.937 2.148,52.827 1.663,55.329 1.555,57.471 
		1.555,58.353 1.789,60.603 2.256,63.249 2.851,65.625 3.444,68.126 4.398,72.645 4.65,74.409 4.885,76.911 4.992,78.675 
		4.992,80.691 4.65,84.075 4.165,85.695 3.444,87.459 2.616,88.845 0.366,91.978 2.616,95.109 3.444,96.495 4.165,98.259 
		4.65,99.879 4.992,103.263 4.992,105.279 4.885,107.043 4.65,109.545 4.398,111.31 3.444,115.827 2.851,118.329 2.256,120.705 
		1.789,123.352 1.555,125.602 1.555,126.483 1.663,128.625 2.148,131.127 2.742,133.018 3.57,134.89 4.992,137.661 	"/>
	<polyline fill-rule="evenodd" stroke="#000000" stroke-width="0.4807" stroke-linejoin="round" stroke-miterlimit="10" points="
		21.03,118.312 24.973,140.812 25.188,142.936 25.081,144.069 24.847,144.735 24.63,145.186 24.181,145.869 23.497,146.535 
		22.938,146.877 22.146,147.111 21.48,147.219 20.922,147.219 19.789,147.111 19.23,146.985 18.78,146.77 18.889,146.085 
		19.338,146.211 19.572,146.211 20.022,146.085 20.473,145.869 20.796,145.635 21.139,145.312 21.48,144.735 21.588,144.411 
		21.696,143.835 21.696,143.619 21.588,143.062 21.247,142.377 21.03,142.161 20.581,141.819 20.347,141.711 19.681,141.478 
		19.123,141.478 18.546,141.585 17.988,141.819 17.646,142.035 17.322,142.377 16.98,142.936 16.873,143.277 16.747,143.835 
		16.747,144.285 16.873,144.969 17.088,145.527 17.431,146.085 17.988,146.661 18.438,146.985 19.23,147.327 19.789,147.436 
		20.922,147.562 21.247,147.562 22.146,147.436 22.723,147.327 23.28,147.111 23.838,146.77 24.63,145.978 25.081,145.312 
		25.422,144.285 25.53,143.835 25.639,142.827 25.422,140.812 21.48,118.312 21.03,118.312 	"/>
	<polyline fill="none" stroke="#000000" stroke-width="0.4807" stroke-linejoin="round" stroke-miterlimit="10" points="
		20.238,137.211 21.696,137.337 22.597,137.337 23.838,137.211 24.522,137.104 25.188,136.887 26.088,136.438 	"/>
	<polyline fill-rule="evenodd" stroke="#000000" stroke-width="0.4807" stroke-linejoin="round" stroke-miterlimit="10" points="
		26.088,136.438 26.88,135.646 27.097,135.303 27.438,134.745 27.672,134.188 27.78,133.845 27.889,133.396 27.997,132.604 
		27.997,132.045 27.889,131.361 27.78,130.911 27.546,130.354 27.097,129.688 26.772,129.345 26.322,129.003 25.747,128.661 
		25.188,128.445 24.738,128.337 23.73,128.211 23.623,128.211 22.597,128.337 21.696,128.553 21.247,128.787 20.581,129.237 
		20.13,129.795 19.896,130.245 19.681,130.803 19.572,131.703 19.681,132.495 19.896,133.053 20.238,133.611 20.688,134.062 
		21.696,134.745 21.588,134.854 20.473,134.295 20.022,133.953 19.446,133.396 18.889,132.604 18.546,131.703 18.438,130.911 
		18.438,130.354 18.546,129.688 18.672,129.237 18.997,128.445 19.338,127.887 19.681,127.438 20.238,126.861 20.922,126.303 
		21.48,125.961 21.931,125.745 22.938,125.511 23.389,125.511 24.522,125.637 25.296,125.854 26.088,126.195 26.88,126.646 
		27.672,127.438 28.23,128.211 28.681,129.111 28.896,129.903 29.022,130.587 29.022,131.253 28.896,132.153 28.789,132.711 
		28.572,133.503 28.23,134.188 27.889,134.745 27.438,135.303 26.88,135.861 26.088,136.438 	"/>
	<polyline fill-rule="evenodd" stroke="#000000" stroke-width="0.4807" stroke-linejoin="round" stroke-miterlimit="10" points="
		20.238,137.211 19.572,137.104 18.672,136.887 17.988,136.653 17.088,136.203 16.639,135.861 15.973,135.303 15.396,134.745 
		14.838,133.953 14.389,133.053 14.046,132.153 13.831,131.146 13.723,130.137 13.723,129.003 13.938,127.312 14.28,125.961 
		14.73,124.845 15.289,123.711 16.081,122.703 17.088,121.587 18.997,119.787 20.238,118.653 23.046,115.953 24.289,114.495 
		24.973,113.361 25.422,112.354 25.639,111.688 25.873,110.787 25.98,109.761 25.98,109.095 25.873,108.303 25.747,107.961 
		26.431,107.511 26.646,108.411 26.772,109.095 26.88,110.104 26.88,110.337 26.772,111.903 26.646,112.587 26.431,113.595 
		26.088,114.837 25.639,115.953 25.081,117.087 24.289,118.438 23.046,119.896 18.889,123.837 17.646,125.188 16.98,126.087 
		16.296,127.203 16.081,127.653 15.738,128.445 15.522,129.237 15.396,130.245 15.396,131.037 15.522,132.045 15.738,132.945 
		16.081,133.845 16.639,134.854 17.088,135.411 17.646,135.987 18.223,136.438 18.889,136.761 19.446,136.995 20.238,137.211 	"/>
	<polyline fill-rule="evenodd" stroke="#000000" stroke-width="0.4807" stroke-linejoin="round" stroke-miterlimit="10" points="
		21.03,118.312 20.581,115.161 20.473,113.037 20.473,111.345 20.688,109.203 20.922,108.195 21.247,107.295 21.696,106.503 
		22.272,105.711 22.831,105.045 23.73,104.146 24.181,103.911 24.289,103.911 24.522,104.037 25.081,104.703 25.747,105.945 
		26.431,107.511 25.747,107.961 25.53,107.403 25.188,106.953 24.847,106.845 24.738,106.845 24.289,106.953 24.181,107.062 
		23.838,107.295 23.389,107.745 22.597,108.861 21.931,110.211 21.588,111.111 21.247,112.695 21.139,113.938 21.139,114.711 
		21.247,116.403 21.48,118.312 21.03,118.312 	"/>
	<path fill="none" stroke="#000000" stroke-width="0.4807" stroke-linejoin="round" stroke-miterlimit="10" d="M34.422,114.045
		v15.391 M34.422,123.837l0.684-1.025"/>
	<polyline fill-rule="evenodd" stroke="#000000" stroke-width="0.4807" stroke-linejoin="round" stroke-miterlimit="10" points="
		35.106,122.812 35.772,122.146 36.457,121.911 37.249,121.911 37.915,122.146 38.256,122.487 38.473,122.938 38.599,123.495 
		38.599,124.503 38.364,125.385 37.915,126.285 37.356,126.969 36.672,127.635 34.422,129.436 36.006,127.869 36.672,126.969 
		37.123,126.069 37.356,125.062 37.356,123.604 37.249,123.045 37.015,122.703 36.564,122.487 35.898,122.487 35.106,122.812 	"/>
	<path fill="none" stroke="#000000" stroke-width="0.4807" stroke-linejoin="round" stroke-miterlimit="10" d="M40.849,104.595
		v15.391 M40.849,114.387l0.684-1.025"/>
	<polyline fill-rule="evenodd" stroke="#000000" stroke-width="0.4807" stroke-linejoin="round" stroke-miterlimit="10" points="
		41.532,113.361 42.198,112.695 42.882,112.461 43.674,112.461 44.34,112.695 44.683,113.037 44.898,113.487 45.024,114.045 
		45.024,115.053 44.791,115.936 44.34,116.835 43.782,117.52 43.099,118.186 40.849,119.985 42.433,118.419 43.099,117.52 
		43.548,116.619 43.782,115.611 43.782,114.153 43.674,113.595 43.44,113.253 42.99,113.037 42.324,113.037 41.532,113.361 	"/>
	<path fill="none" stroke="#000000" stroke-width="0.4807" stroke-linejoin="round" stroke-miterlimit="10" d="M47.274,117.195
		v15.39 M47.274,126.987l0.684-1.026"/>
	<polyline fill-rule="evenodd" stroke="#000000" stroke-width="0.4807" stroke-linejoin="round" stroke-miterlimit="10" points="
		47.958,125.961 48.625,125.295 49.309,125.062 50.101,125.062 50.767,125.295 51.108,125.637 51.324,126.087 51.45,126.646 
		51.45,127.653 51.216,128.535 50.767,129.436 50.208,130.119 49.524,130.785 47.274,132.585 48.858,131.02 49.524,130.119 
		49.975,129.219 50.208,128.211 50.208,126.753 50.101,126.195 49.866,125.854 49.417,125.637 48.75,125.637 47.958,125.961 	"/>
	<path fill="none" stroke="#000000" stroke-width="0.4807" stroke-linejoin="round" stroke-miterlimit="10" d="M53.7,107.745v15.39
		 M53.7,117.537l0.684-1.026"/>
	<polyline fill-rule="evenodd" stroke="#000000" stroke-width="0.4807" stroke-linejoin="round" stroke-miterlimit="10" points="
		54.384,116.511 55.05,115.845 55.734,115.611 56.526,115.611 57.192,115.845 57.534,116.188 57.75,116.637 57.876,117.195 
		57.876,118.203 57.643,119.085 57.192,119.985 56.634,120.669 55.95,121.335 53.7,123.135 55.284,121.569 55.95,120.669 
		56.4,119.77 56.634,118.761 56.634,117.303 56.526,116.745 56.292,116.403 55.842,116.188 55.177,116.188 54.384,116.511 	"/>
	<path fill="none" stroke="#000000" stroke-width="0.4807" stroke-linejoin="round" stroke-miterlimit="10" d="M60.126,120.345
		v15.391 M60.126,130.137l0.684-1.025"/>
	<polyline fill-rule="evenodd" stroke="#000000" stroke-width="0.4807" stroke-linejoin="round" stroke-miterlimit="10" points="
		60.811,129.111 61.477,128.445 62.16,128.211 62.952,128.211 63.618,128.445 63.96,128.787 64.177,129.237 64.303,129.795 
		64.303,130.803 64.068,131.686 63.618,132.585 63.061,133.27 62.376,133.936 60.126,135.735 61.71,134.169 62.376,133.27 
		62.826,132.369 63.061,131.361 63.061,129.903 62.952,129.345 62.719,129.003 62.269,128.787 61.603,128.787 60.811,129.111 	"/>
	<polyline fill="none" stroke="#000000" stroke-width="0.4807" stroke-linejoin="round" stroke-miterlimit="10" points="
		74.977,129.669 75.3,129.777 75.876,129.885 76.992,129.885 78.234,129.327 79.026,128.535 80.376,126.411 76.776,137.661 	"/>
	<polyline fill-rule="evenodd" stroke="#000000" stroke-width="0.4807" stroke-linejoin="round" stroke-miterlimit="10" points="
		74.977,129.669 74.292,129.219 73.95,128.661 73.95,127.887 74.292,127.312 74.977,126.861 75.876,126.861 76.542,127.312 
		76.884,127.887 76.884,128.661 76.542,129.219 75.876,129.669 74.977,129.669 	"/>
	<polyline fill="none" stroke="#000000" stroke-width="0.4807" stroke-linejoin="round" stroke-miterlimit="10" points="
		76.992,123.369 77.316,123.478 77.893,123.585 79.008,123.585 80.25,123.027 81.042,122.235 82.393,120.111 78.792,131.361 	"/>
	<polyline fill-rule="evenodd" stroke="#000000" stroke-width="0.4807" stroke-linejoin="round" stroke-miterlimit="10" points="
		76.992,123.369 76.309,122.919 75.966,122.361 75.966,121.587 76.309,121.011 76.992,120.562 77.893,120.562 78.559,121.011 
		78.9,121.587 78.9,122.361 78.559,122.919 77.893,123.369 76.992,123.369 	"/>
	
		<line fill="none" stroke="#000000" stroke-width="0.7211" stroke-linejoin="round" stroke-miterlimit="10" x1="91.284" y1="143.961" x2="103.435" y2="143.961"/>
	
		<line fill="none" stroke="#000000" stroke-width="0.4807" stroke-linejoin="round" stroke-miterlimit="10" x1="101.185" y1="143.007" x2="101.185" y2="98.277"/>
	<polyline fill-rule="evenodd" stroke="#000000" stroke-width="0.3605" stroke-linejoin="round" stroke-miterlimit="10" points="
		107.826,121.677 107.935,121.011 108.042,119.427 108.042,118.869 107.935,117.627 107.826,116.961 107.484,115.827 
		107.143,115.035 106.818,114.369 106.368,113.686 105.792,113.02 105.234,112.461 104.568,111.885 103.542,111.219 
		102.427,110.661 101.185,110.211 101.185,104.127 101.526,105.478 101.634,105.819 101.868,106.377 102.318,107.277 
		102.643,107.835 102.984,108.285 103.542,108.969 104.784,110.319 105.234,110.77 106.026,111.669 106.477,112.228 
		106.927,112.911 107.376,113.686 107.719,114.478 107.935,115.161 108.168,116.062 108.276,116.728 108.384,118.077 
		108.384,119.319 108.276,120.562 108.168,121.335 108.042,121.911 107.935,122.361 107.826,121.677 	"/>
	<polyline fill-rule="evenodd" stroke="#000000" stroke-width="0.3605" stroke-linejoin="round" stroke-miterlimit="10" points="
		108.168,121.335 108.042,121.911 107.935,122.361 107.719,123.135 107.269,124.377 107.484,123.585 107.592,123.027 
		107.719,122.469 107.826,121.677 107.935,121.011 108.168,121.335 	"/>
	<polyline fill-rule="evenodd" stroke="#000000" stroke-width="0.3605" stroke-linejoin="round" stroke-miterlimit="10" points="
		107.826,115.377 107.935,114.711 108.042,113.127 108.042,112.569 107.935,111.327 107.826,110.661 107.484,109.527 
		107.143,108.735 106.818,108.069 106.368,107.385 105.792,106.719 105.234,106.161 104.568,105.585 103.542,104.919 
		102.427,104.361 101.185,103.911 101.185,97.827 101.526,99.177 101.634,99.52 101.868,100.077 102.318,100.978 102.643,101.535 
		102.984,101.985 103.542,102.669 104.784,104.02 105.234,104.469 106.026,105.369 106.477,105.927 106.927,106.611 
		107.376,107.385 107.719,108.177 107.935,108.861 108.168,109.761 108.276,110.427 108.384,111.777 108.384,113.02 
		108.276,114.261 108.168,115.035 108.042,115.611 107.935,116.062 107.826,115.377 	"/>
	
		<line fill="none" stroke="#000000" stroke-width="0.7211" stroke-linejoin="round" stroke-miterlimit="10" x1="119.634" y1="143.961" x2="131.784" y2="143.961"/>
	
		<line fill="none" stroke="#000000" stroke-width="0.4807" stroke-linejoin="round" stroke-miterlimit="10" x1="129.534" y1="143.007" x2="129.534" y2="96.711"/>
	
		<line fill="none" stroke="#000000" stroke-width="0.4807" stroke-linejoin="round" stroke-miterlimit="10" x1="111.048" y1="120.237" x2="111.048" y2="131.812"/>
	<polyline fill-rule="evenodd" stroke="#000000" stroke-width="0.4807" stroke-linejoin="round" stroke-miterlimit="10" points="
		111.048,130.461 111.048,131.812 114.648,130.228 114.648,128.877 111.048,130.461 	"/>
	<polyline fill-rule="evenodd" stroke="#000000" stroke-width="0.4807" stroke-linejoin="round" stroke-miterlimit="10" points="
		114.648,125.854 111.048,127.438 111.048,126.087 114.648,124.503 114.648,125.854 	"/>
	
		<line fill="none" stroke="#000000" stroke-width="0.4807" stroke-linejoin="round" stroke-miterlimit="10" x1="114.648" y1="124.503" x2="114.648" y2="135.186"/>
	
		<line fill="none" stroke="#000000" stroke-width="0.4807" stroke-linejoin="round" stroke-miterlimit="10" x1="115.368" y1="110.787" x2="115.368" y2="122.361"/>
	<polyline fill-rule="evenodd" stroke="#000000" stroke-width="0.4807" stroke-linejoin="round" stroke-miterlimit="10" points="
		115.368,121.011 115.368,122.361 118.968,120.777 118.968,119.427 115.368,121.011 	"/>
	<polyline fill-rule="evenodd" stroke="#000000" stroke-width="0.4807" stroke-linejoin="round" stroke-miterlimit="10" points="
		118.968,116.403 115.368,117.987 115.368,116.637 118.968,115.053 118.968,116.403 	"/>
	
		<line fill="none" stroke="#000000" stroke-width="0.4807" stroke-linejoin="round" stroke-miterlimit="10" x1="118.968" y1="115.053" x2="118.968" y2="126.735"/>
	<path fill="none" stroke="#000000" stroke-width="0.4807" stroke-linejoin="round" stroke-miterlimit="10" d="M153.205,137.661
		V46.311 M153.331,137.661V46.311"/>
	
		<line fill="none" stroke="#000000" stroke-width="0.7211" stroke-linejoin="round" stroke-miterlimit="10" x1="163.104" y1="143.961" x2="175.254" y2="143.961"/>
	
		<line fill="none" stroke="#000000" stroke-width="0.4807" stroke-linejoin="round" stroke-miterlimit="10" x1="173.004" y1="143.007" x2="173.004" y2="102.921"/>
	<g>
		<polyline fill-rule="evenodd" stroke="#000000" stroke-width="0.4807" stroke-linejoin="round" stroke-miterlimit="10" points="
			183.14,141.026 183.14,140.468 183.59,140.019 184.166,140.019 184.616,140.468 184.616,141.026 184.166,141.477 183.59,141.477 
			183.14,141.026 183.14,140.468 		"/>
		<polyline fill-rule="evenodd" stroke="#000000" stroke-width="0.4807" stroke-linejoin="round" stroke-miterlimit="10" points="
			183.14,134.727 183.14,134.168 183.59,133.718 184.166,133.718 184.616,134.168 184.616,134.727 184.166,135.176 183.59,135.176 
			183.14,134.727 183.14,134.168 		"/>
		<polyline fill-rule="evenodd" stroke="#000000" stroke-width="0.4807" stroke-linejoin="round" stroke-miterlimit="10" points="
			183.122,128.594 183.122,128.036 183.572,127.586 184.148,127.586 184.598,128.036 184.598,128.594 184.148,129.044 
			183.572,129.044 183.122,128.594 183.122,128.036 		"/>
		<polyline fill-rule="evenodd" stroke="#000000" stroke-width="0.4807" stroke-linejoin="round" stroke-miterlimit="10" points="
			183.14,115.826 183.14,115.269 183.59,114.818 184.166,114.818 184.616,115.269 184.616,115.826 184.166,116.276 183.59,116.276 
			183.14,115.826 183.14,115.269 		"/>
	</g>
	<g>
		<path fill="none" stroke="#000000" stroke-width="0.4807" stroke-linejoin="round" stroke-miterlimit="10" d="M189.917,123.667
			v15.39 M189.917,133.459l0.684-1.026"/>
		<polyline fill-rule="evenodd" stroke="#000000" stroke-width="0.4807" stroke-linejoin="round" stroke-miterlimit="10" points="
			190.601,132.433 191.267,131.767 191.95,131.533 192.742,131.533 193.408,131.767 193.75,132.109 193.966,132.559 
			194.092,133.117 194.092,134.125 193.858,135.007 193.408,135.907 192.851,136.591 192.167,137.257 189.917,139.057 
			191.5,137.491 192.167,136.591 192.616,135.691 192.851,134.683 192.851,133.225 192.742,132.667 192.508,132.325 
			192.059,132.109 191.393,132.109 190.601,132.433 		"/>
	</g>
	
		<line fill="none" stroke="#000000" stroke-width="0.4807" stroke-linejoin="round" stroke-miterlimit="10" x1="203.046" y1="133.558" x2="203.046" y2="95.146"/>
	<polyline fill-rule="evenodd" stroke="#000000" stroke-width="0" stroke-linejoin="round" stroke-miterlimit="10" points="
		280.339,91.978 280.339,95.127 203.172,103.011 203.172,99.861 280.339,91.978 280.339,95.127 	"/>
	<polyline fill-rule="evenodd" stroke="#000000" stroke-width="0" stroke-linejoin="round" stroke-miterlimit="10" points="
		280.339,87.261 280.339,90.411 203.172,98.277 203.172,95.127 280.339,87.261 280.339,90.411 	"/>
	<path fill="none" stroke="#000000" stroke-width="0.4807" stroke-linejoin="round" stroke-miterlimit="10" d="M211.794,35.294
		v15.39 M211.794,45.086l0.685-1.026"/>
	<polyline fill-rule="evenodd" stroke="#000000" stroke-width="0.4807" stroke-linejoin="round" stroke-miterlimit="10" points="
		212.479,44.061 213.145,43.395 213.828,43.161 214.62,43.161 215.286,43.395 215.628,43.737 215.845,44.187 215.971,44.745 
		215.971,45.752 215.736,46.635 215.286,47.535 214.729,48.219 214.044,48.885 211.794,50.685 213.378,49.119 214.044,48.219 
		214.494,47.319 214.729,46.311 214.729,44.853 214.62,44.294 214.387,43.953 213.937,43.737 213.271,43.737 212.479,44.061 	"/>
	
		<line fill="none" stroke="#000000" stroke-width="0.4807" stroke-linejoin="round" stroke-miterlimit="10" x1="218.544" y1="47.247" x2="218.544" y2="96.711"/>
	<path fill="none" stroke="#000000" stroke-width="0.4807" stroke-linejoin="round" stroke-miterlimit="10" d="M229.057,13.245
		v15.39 M229.057,23.037l0.684-1.026"/>
	<polyline fill-rule="evenodd" stroke="#000000" stroke-width="0.4807" stroke-linejoin="round" stroke-miterlimit="10" points="
		229.74,22.011 230.406,21.345 231.091,21.111 231.883,21.111 232.549,21.345 232.891,21.687 233.106,22.137 233.232,22.695 
		233.232,23.703 232.998,24.584 232.549,25.485 231.99,26.168 231.307,26.834 229.057,28.635 230.641,27.069 231.307,26.168 
		231.757,25.269 231.99,24.261 231.99,22.803 231.883,22.245 231.648,21.903 231.198,21.687 230.532,21.687 229.74,22.011 	"/>
	<path fill="none" stroke="#000000" stroke-width="0.7211" stroke-linejoin="round" stroke-miterlimit="10" d="M233.557,27.411
		h12.149 M233.557,33.71h12.149 M233.557,40.011h12.149"/>
	
		<line fill="none" stroke="#000000" stroke-width="0.4807" stroke-linejoin="round" stroke-miterlimit="10" x1="235.807" y1="25.197" x2="235.807" y2="94.947"/>
	
		<line fill="none" stroke="#000000" stroke-width="0.4807" stroke-linejoin="round" stroke-miterlimit="10" x1="249.019" y1="111.507" x2="249.019" y2="95.308"/>
	<path fill="none" stroke="#000000" stroke-width="0.7211" stroke-linejoin="round" stroke-miterlimit="10" d="M259.854,27.411
		h12.15 M259.854,33.71h12.15 M259.854,40.011h12.15"/>
	
		<line fill="none" stroke="#000000" stroke-width="0.4807" stroke-linejoin="round" stroke-miterlimit="10" x1="262.104" y1="25.197" x2="262.104" y2="92.463"/>
	
		<line fill="none" stroke="#000000" stroke-width="0.4807" stroke-linejoin="round" stroke-miterlimit="10" x1="280.339" y1="47.247" x2="280.339" y2="95.127"/>
	<polyline fill-rule="evenodd" stroke="#000000" stroke-width="0.4807" stroke-linejoin="round" stroke-miterlimit="10" points="
		290.465,122.901 292.83,136.401 292.96,137.676 292.896,138.356 292.755,138.756 292.625,139.025 292.355,139.436 291.944,139.836 
		291.61,140.041 291.135,140.181 290.735,140.246 290.4,140.246 289.72,140.181 289.386,140.105 289.115,139.976 289.18,139.565 
		289.45,139.642 289.591,139.642 289.86,139.565 290.131,139.436 290.325,139.296 290.53,139.102 290.735,138.756 290.8,138.562 
		290.865,138.216 290.865,138.086 290.8,137.751 290.595,137.341 290.465,137.211 290.195,137.006 290.055,136.941 289.655,136.801 
		289.32,136.801 288.975,136.865 288.64,137.006 288.435,137.136 288.24,137.341 288.035,137.676 287.971,137.881 287.895,138.216 
		287.895,138.485 287.971,138.896 288.101,139.23 288.306,139.565 288.64,139.911 288.91,140.105 289.386,140.311 289.72,140.376 
		290.4,140.451 290.595,140.451 291.135,140.376 291.48,140.311 291.815,140.181 292.15,139.976 292.625,139.501 292.896,139.102 
		293.101,138.485 293.165,138.216 293.229,137.61 293.101,136.401 290.735,122.901 290.465,122.901 	"/>
	<polyline fill="none" stroke="#000000" stroke-width="0.4807" stroke-linejoin="round" stroke-miterlimit="10" points="
		289.99,134.241 290.865,134.316 291.405,134.316 292.15,134.241 292.561,134.177 292.96,134.047 293.5,133.776 	"/>
	<polyline fill-rule="evenodd" stroke="#000000" stroke-width="0.4807" stroke-linejoin="round" stroke-miterlimit="10" points="
		293.5,133.776 293.976,133.302 294.104,133.097 294.31,132.762 294.45,132.427 294.516,132.222 294.58,131.951 294.645,131.477 
		294.645,131.142 294.58,130.731 294.516,130.461 294.375,130.126 294.104,129.727 293.91,129.521 293.641,129.316 293.295,129.111 
		292.96,128.981 292.69,128.917 292.085,128.841 292.021,128.841 291.405,128.917 290.865,129.046 290.595,129.187 290.195,129.457 
		289.925,129.792 289.785,130.062 289.655,130.396 289.591,130.937 289.655,131.411 289.785,131.746 289.99,132.081 290.26,132.352 
		290.865,132.762 290.8,132.826 290.131,132.491 289.86,132.286 289.515,131.951 289.18,131.477 288.975,130.937 288.91,130.461 
		288.91,130.126 288.975,129.727 289.051,129.457 289.245,128.981 289.45,128.646 289.655,128.377 289.99,128.031 290.4,127.696 
		290.735,127.491 291.005,127.361 291.61,127.221 291.88,127.221 292.561,127.297 293.024,127.427 293.5,127.632 293.976,127.901 
		294.45,128.377 294.785,128.841 295.056,129.381 295.185,129.856 295.261,130.267 295.261,130.666 295.185,131.206 295.12,131.541 
		294.99,132.017 294.785,132.427 294.58,132.762 294.31,133.097 293.976,133.431 293.5,133.776 	"/>
	<polyline fill-rule="evenodd" stroke="#000000" stroke-width="0.4807" stroke-linejoin="round" stroke-miterlimit="10" points="
		289.99,134.241 289.591,134.177 289.051,134.047 288.64,133.906 288.101,133.637 287.83,133.431 287.431,133.097 287.085,132.762 
		286.75,132.286 286.479,131.746 286.274,131.206 286.146,130.602 286.08,129.997 286.08,129.316 286.21,128.301 286.415,127.491 
		286.686,126.821 287.021,126.142 287.495,125.536 288.101,124.866 289.245,123.787 289.99,123.106 291.675,121.486 292.42,120.611 
		292.83,119.931 293.101,119.326 293.229,118.927 293.37,118.387 293.436,117.771 293.436,117.371 293.37,116.896 293.295,116.691 
		293.705,116.421 293.835,116.961 293.91,117.371 293.976,117.977 293.976,118.116 293.91,119.057 293.835,119.467 293.705,120.071 
		293.5,120.816 293.229,121.486 292.896,122.167 292.42,122.977 291.675,123.852 289.18,126.217 288.435,127.026 288.035,127.566 
		287.625,128.236 287.495,128.507 287.29,128.981 287.16,129.457 287.085,130.062 287.085,130.537 287.16,131.142 287.29,131.682 
		287.495,132.222 287.83,132.826 288.101,133.161 288.435,133.507 288.78,133.776 289.18,133.971 289.515,134.111 289.99,134.241 	
		"/>
	<polyline fill-rule="evenodd" stroke="#000000" stroke-width="0.4807" stroke-linejoin="round" stroke-miterlimit="10" points="
		290.465,122.901 290.195,121.011 290.131,119.736 290.131,118.722 290.26,117.437 290.4,116.831 290.595,116.292 290.865,115.816 
		291.21,115.341 291.545,114.941 292.085,114.401 292.355,114.261 292.42,114.261 292.561,114.337 292.896,114.736 293.295,115.481 
		293.705,116.421 293.295,116.691 293.165,116.356 292.96,116.086 292.755,116.021 292.69,116.021 292.42,116.086 292.355,116.151 
		292.15,116.292 291.88,116.562 291.405,117.231 291.005,118.041 290.8,118.581 290.595,119.531 290.53,120.276 290.53,120.741 
		290.595,121.757 290.735,122.901 290.465,122.901 	"/>
	<path fill="none" stroke="#000000" stroke-width="0.4807" stroke-linejoin="round" stroke-miterlimit="10" d="M297.475,137.661
		V46.311 M297.582,137.661V46.311"/>
	
		<line fill="none" stroke="#000000" stroke-width="0.7211" stroke-linejoin="round" stroke-miterlimit="10" x1="305.484" y1="143.961" x2="317.635" y2="143.961"/>
	
		<line fill="none" stroke="#000000" stroke-width="0.4807" stroke-linejoin="round" stroke-miterlimit="10" x1="315.385" y1="143.007" x2="315.385" y2="105.099"/>
	<g>
		<polyline fill-rule="evenodd" stroke="#000000" stroke-width="0.4807" stroke-linejoin="round" stroke-miterlimit="10" points="
			325.103,141.027 325.103,140.469 325.553,140.02 326.11,140.02 326.561,140.469 326.561,141.027 326.11,141.478 325.553,141.478 
			325.103,141.027 325.103,140.469 		"/>
		<polyline fill-rule="evenodd" stroke="#000000" stroke-width="0.4807" stroke-linejoin="round" stroke-miterlimit="10" points="
			325.103,134.728 325.103,134.169 325.553,133.719 326.11,133.719 326.561,134.169 326.561,134.728 326.11,135.177 
			325.553,135.177 325.103,134.728 325.103,134.169 		"/>
		<polyline fill-rule="evenodd" stroke="#000000" stroke-width="0.4807" stroke-linejoin="round" stroke-miterlimit="10" points="
			325.085,128.427 325.085,127.869 325.534,127.419 326.093,127.419 326.542,127.869 326.542,128.427 326.093,128.877 
			325.534,128.877 325.085,128.427 325.085,127.869 		"/>
		<polyline fill-rule="evenodd" stroke="#000000" stroke-width="0.4807" stroke-linejoin="round" stroke-miterlimit="10" points="
			325.103,115.827 325.103,115.27 325.553,114.819 326.11,114.819 326.561,115.27 326.561,115.827 326.11,116.277 325.553,116.277 
			325.103,115.827 325.103,115.27 		"/>
	</g>
	<path fill="none" stroke="#000000" stroke-width="0.7211" stroke-linejoin="round" stroke-miterlimit="10" d="M326.435,150.261
		h12.15 M326.435,143.961h12.15"/>
	
		<line fill="none" stroke="#000000" stroke-width="0.4807" stroke-linejoin="round" stroke-miterlimit="10" x1="336.335" y1="149.308" x2="336.335" y2="97.485"/>
	<polyline fill-rule="evenodd" stroke="#000000" stroke-width="0" stroke-linejoin="round" stroke-miterlimit="10" points="
		401.154,92.77 401.154,89.619 336.335,97.485 336.335,100.635 401.154,92.77 401.154,89.619 	"/>
	<polyline fill-rule="evenodd" stroke="#000000" stroke-width="0" stroke-linejoin="round" stroke-miterlimit="10" points="
		401.154,97.485 401.154,94.335 336.335,102.219 336.335,105.369 401.154,97.485 401.154,94.335 	"/>
	
		<line fill="none" stroke="#000000" stroke-width="0.4807" stroke-linejoin="round" stroke-miterlimit="10" x1="349.024" y1="62.997" x2="349.024" y2="98.142"/>
	
		<line fill="none" stroke="#000000" stroke-width="0.4807" stroke-linejoin="round" stroke-miterlimit="10" x1="401.154" y1="62.996" x2="401.154" y2="97.538"/>
	
		<line fill="none" stroke="#000000" stroke-width="0.4807" stroke-linejoin="round" stroke-miterlimit="10" x1="418.704" y1="137.661" x2="418.704" y2="46.311"/>
	
		<line fill="none" stroke="#000000" stroke-width="0.4807" stroke-linejoin="round" stroke-miterlimit="10" x1="418.83" y1="137.661" x2="418.83" y2="46.311"/>
	
		<line fill="none" stroke="#000000" stroke-width="0.4807" stroke-linejoin="round" stroke-miterlimit="10" x1="8.322" y1="71.511" x2="418.704" y2="71.511"/>
	
		<line fill="none" stroke="#000000" stroke-width="0.4807" stroke-linejoin="round" stroke-miterlimit="10" x1="8.322" y1="65.21" x2="418.704" y2="65.21"/>
	
		<line fill="none" stroke="#000000" stroke-width="0.4807" stroke-linejoin="round" stroke-miterlimit="10" x1="8.322" y1="58.911" x2="418.704" y2="58.911"/>
	
		<line fill="none" stroke="#000000" stroke-width="0.4807" stroke-linejoin="round" stroke-miterlimit="10" x1="8.322" y1="52.611" x2="418.704" y2="52.611"/>
	
		<line fill="none" stroke="#000000" stroke-width="0.4807" stroke-linejoin="round" stroke-miterlimit="10" x1="8.322" y1="46.311" x2="418.704" y2="46.311"/>
	<polyline fill-rule="evenodd" stroke="#000000" stroke-width="0.4807" stroke-linejoin="round" stroke-miterlimit="10" points="
		21.03,52.161 24.973,74.661 25.188,76.785 25.081,77.918 24.847,78.584 24.63,79.035 24.181,79.719 23.497,80.385 22.938,80.728 
		22.146,80.961 21.48,81.069 20.922,81.069 19.789,80.961 19.23,80.835 18.78,80.619 18.889,79.935 19.338,80.061 19.572,80.061 
		20.022,79.935 20.473,79.719 20.796,79.485 21.139,79.161 21.48,78.584 21.588,78.261 21.696,77.685 21.696,77.469 21.588,76.911 
		21.247,76.227 21.03,76.011 20.581,75.668 20.347,75.561 19.681,75.327 19.123,75.327 18.546,75.435 17.988,75.668 17.646,75.885 
		17.322,76.227 16.98,76.785 16.873,77.126 16.747,77.685 16.747,78.135 16.873,78.819 17.088,79.376 17.431,79.935 17.988,80.511 
		18.438,80.835 19.23,81.177 19.789,81.285 20.922,81.411 21.247,81.411 22.146,81.285 22.723,81.177 23.28,80.961 23.838,80.619 
		24.63,79.827 25.081,79.161 25.422,78.135 25.53,77.685 25.639,76.677 25.422,74.661 21.48,52.161 21.03,52.161 	"/>
	<polyline fill="none" stroke="#000000" stroke-width="0.4807" stroke-linejoin="round" stroke-miterlimit="10" points="
		20.238,71.061 21.696,71.187 22.597,71.187 23.838,71.061 24.522,70.953 25.188,70.737 26.088,70.287 	"/>
	<polyline fill-rule="evenodd" stroke="#000000" stroke-width="0.4807" stroke-linejoin="round" stroke-miterlimit="10" points="
		26.088,70.287 26.88,69.495 27.097,69.153 27.438,68.595 27.672,68.037 27.78,67.695 27.889,67.245 27.997,66.453 27.997,65.895 
		27.889,65.21 27.78,64.761 27.546,64.203 27.097,63.537 26.772,63.195 26.322,62.853 25.747,62.511 25.188,62.294 24.738,62.187 
		23.73,62.061 23.623,62.061 22.597,62.187 21.696,62.403 21.247,62.637 20.581,63.086 20.13,63.645 19.896,64.095 19.681,64.653 
		19.572,65.553 19.681,66.345 19.896,66.903 20.238,67.46 20.688,67.911 21.696,68.595 21.588,68.703 20.473,68.145 20.022,67.803 
		19.446,67.245 18.889,66.453 18.546,65.553 18.438,64.761 18.438,64.203 18.546,63.537 18.672,63.086 18.997,62.294 19.338,61.737 
		19.681,61.287 20.238,60.71 20.922,60.153 21.48,59.811 21.931,59.595 22.938,59.361 23.389,59.361 24.522,59.487 25.296,59.703 
		26.088,60.044 26.88,60.495 27.672,61.287 28.23,62.061 28.681,62.96 28.896,63.752 29.022,64.437 29.022,65.103 28.896,66.002 
		28.789,66.561 28.572,67.353 28.23,68.037 27.889,68.595 27.438,69.153 26.88,69.71 26.088,70.287 	"/>
	<polyline fill-rule="evenodd" stroke="#000000" stroke-width="0.4807" stroke-linejoin="round" stroke-miterlimit="10" points="
		20.238,71.061 19.572,70.953 18.672,70.737 17.988,70.502 17.088,70.053 16.639,69.71 15.973,69.153 15.396,68.595 14.838,67.803 
		14.389,66.903 14.046,66.002 13.831,64.995 13.723,63.987 13.723,62.853 13.938,61.161 14.28,59.811 14.73,58.695 15.289,57.561 
		16.081,56.553 17.088,55.437 18.997,53.637 20.238,52.502 23.046,49.803 24.289,48.345 24.973,47.21 25.422,46.203 25.639,45.537 
		25.873,44.637 25.98,43.611 25.98,42.945 25.873,42.153 25.747,41.811 26.431,41.361 26.646,42.261 26.772,42.945 26.88,43.953 
		26.88,44.187 26.772,45.752 26.646,46.437 26.431,47.445 26.088,48.687 25.639,49.803 25.081,50.937 24.289,52.287 23.046,53.745 
		18.889,57.687 17.646,59.037 16.98,59.937 16.296,61.053 16.081,61.502 15.738,62.294 15.522,63.086 15.396,64.095 15.396,64.887 
		15.522,65.895 15.738,66.794 16.081,67.695 16.639,68.703 17.088,69.261 17.646,69.836 18.223,70.287 18.889,70.611 19.446,70.845 
		20.238,71.061 	"/>
	<polyline fill-rule="evenodd" stroke="#000000" stroke-width="0.4807" stroke-linejoin="round" stroke-miterlimit="10" points="
		21.03,52.161 20.581,49.011 20.473,46.887 20.473,45.195 20.688,43.053 20.922,42.044 21.247,41.145 21.696,40.353 22.272,39.561 
		22.831,38.895 23.73,37.995 24.181,37.761 24.289,37.761 24.522,37.887 25.081,38.553 25.747,39.794 26.431,41.361 25.747,41.811 
		25.53,41.252 25.188,40.803 24.847,40.695 24.738,40.695 24.289,40.803 24.181,40.911 23.838,41.145 23.389,41.595 22.597,42.71 
		21.931,44.061 21.588,44.96 21.247,46.544 21.139,47.787 21.139,48.561 21.247,50.252 21.48,52.161 21.03,52.161 	"/>
	<path fill="none" stroke="#000000" stroke-width="0.4807" stroke-linejoin="round" stroke-miterlimit="10" d="M34.422,47.895v15.39
		 M34.422,57.687l0.684-1.026"/>
	<polyline fill-rule="evenodd" stroke="#000000" stroke-width="0.4807" stroke-linejoin="round" stroke-miterlimit="10" points="
		35.106,56.661 35.772,55.995 36.457,55.761 37.249,55.761 37.915,55.995 38.256,56.336 38.473,56.787 38.599,57.345 38.599,58.353 
		38.364,59.235 37.915,60.135 37.356,60.819 36.672,61.485 34.422,63.285 36.006,61.719 36.672,60.819 37.123,59.918 37.356,58.911 
		37.356,57.453 37.249,56.895 37.015,56.553 36.564,56.336 35.898,56.336 35.106,56.661 	"/>
	<path fill="none" stroke="#000000" stroke-width="0.4807" stroke-linejoin="round" stroke-miterlimit="10" d="M40.849,38.445v15.39
		 M40.849,48.237l0.684-1.026"/>
	<polyline fill-rule="evenodd" stroke="#000000" stroke-width="0.4807" stroke-linejoin="round" stroke-miterlimit="10" points="
		41.532,47.21 42.198,46.544 42.882,46.311 43.674,46.311 44.34,46.544 44.683,46.887 44.898,47.336 45.024,47.895 45.024,48.903 
		44.791,49.785 44.34,50.685 43.782,51.369 43.099,52.035 40.849,53.834 42.433,52.269 43.099,51.369 43.548,50.469 43.782,49.46 
		43.782,48.002 43.674,47.445 43.44,47.103 42.99,46.887 42.324,46.887 41.532,47.21 	"/>
	<path fill="none" stroke="#000000" stroke-width="0.4807" stroke-linejoin="round" stroke-miterlimit="10" d="M47.274,51.044v15.39
		 M47.274,60.836l0.684-1.026"/>
	<polyline fill-rule="evenodd" stroke="#000000" stroke-width="0.4807" stroke-linejoin="round" stroke-miterlimit="10" points="
		47.958,59.811 48.625,59.145 49.309,58.911 50.101,58.911 50.767,59.145 51.108,59.487 51.324,59.937 51.45,60.495 51.45,61.502 
		51.216,62.385 50.767,63.285 50.208,63.969 49.524,64.635 47.274,66.435 48.858,64.869 49.524,63.969 49.975,63.069 50.208,62.061 
		50.208,60.603 50.101,60.044 49.866,59.703 49.417,59.487 48.75,59.487 47.958,59.811 	"/>
	<path fill="none" stroke="#000000" stroke-width="0.4807" stroke-linejoin="round" stroke-miterlimit="10" d="M53.7,41.595v15.39
		 M53.7,51.387l0.684-1.026"/>
	<polyline fill-rule="evenodd" stroke="#000000" stroke-width="0.4807" stroke-linejoin="round" stroke-miterlimit="10" points="
		54.384,50.361 55.05,49.695 55.734,49.46 56.526,49.46 57.192,49.695 57.534,50.037 57.75,50.487 57.876,51.044 57.876,52.053 
		57.643,52.935 57.192,53.834 56.634,54.519 55.95,55.185 53.7,56.985 55.284,55.418 55.95,54.519 56.4,53.619 56.634,52.611 
		56.634,51.153 56.526,50.595 56.292,50.252 55.842,50.037 55.177,50.037 54.384,50.361 	"/>
	<path fill="none" stroke="#000000" stroke-width="0.4807" stroke-linejoin="round" stroke-miterlimit="10" d="M60.126,54.195v15.39
		 M60.126,63.987l0.684-1.026"/>
	<polyline fill-rule="evenodd" stroke="#000000" stroke-width="0.4807" stroke-linejoin="round" stroke-miterlimit="10" points="
		60.811,62.96 61.477,62.294 62.16,62.061 62.952,62.061 63.618,62.294 63.96,62.637 64.177,63.086 64.303,63.645 64.303,64.653 
		64.068,65.535 63.618,66.435 63.061,67.119 62.376,67.785 60.126,69.584 61.71,68.019 62.376,67.119 62.826,66.219 63.061,65.21 
		63.061,63.752 62.952,63.195 62.719,62.853 62.269,62.637 61.603,62.637 60.811,62.96 	"/>
	<polyline fill="none" stroke="#000000" stroke-width="0.4807" stroke-linejoin="round" stroke-miterlimit="10" points="
		74.977,63.519 75.3,63.626 75.876,63.735 76.992,63.735 78.234,63.177 79.026,62.385 80.376,60.261 76.776,71.511 	"/>
	<polyline fill-rule="evenodd" stroke="#000000" stroke-width="0.4807" stroke-linejoin="round" stroke-miterlimit="10" points="
		74.977,63.519 74.292,63.069 73.95,62.511 73.95,61.737 74.292,61.161 74.977,60.71 75.876,60.71 76.542,61.161 76.884,61.737 
		76.884,62.511 76.542,63.069 75.876,63.519 74.977,63.519 	"/>
	<polyline fill="none" stroke="#000000" stroke-width="0.4807" stroke-linejoin="round" stroke-miterlimit="10" points="
		76.992,57.219 77.316,57.327 77.893,57.435 79.008,57.435 80.25,56.876 81.042,56.084 82.393,53.96 78.792,65.21 	"/>
	<polyline fill-rule="evenodd" stroke="#000000" stroke-width="0.4807" stroke-linejoin="round" stroke-miterlimit="10" points="
		76.992,57.219 76.309,56.769 75.966,56.21 75.966,55.437 76.309,54.861 76.992,54.411 77.893,54.411 78.559,54.861 78.9,55.437 
		78.9,56.21 78.559,56.769 77.893,57.219 76.992,57.219 	"/>
	<path fill="none" stroke="#000000" stroke-width="0.7211" stroke-linejoin="round" stroke-miterlimit="10" d="M91.284,27.411h12.15
		 M91.284,33.71h12.15 M91.284,40.011h12.15"/>
	
		<line fill="none" stroke="#000000" stroke-width="0.4807" stroke-linejoin="round" stroke-miterlimit="10" x1="93.534" y1="28.347" x2="93.534" y2="76.227"/>
	<polyline fill-rule="evenodd" stroke="#000000" stroke-width="0.3605" stroke-linejoin="round" stroke-miterlimit="10" points="
		100.177,52.827 100.284,53.511 100.393,55.077 100.393,55.635 100.284,56.876 100.177,57.561 99.834,58.677 99.492,59.469 
		99.168,60.135 98.719,60.819 98.143,61.485 97.584,62.061 96.918,62.619 95.893,63.285 94.776,63.861 93.534,64.311 93.534,70.376 
		93.876,69.027 93.984,68.685 94.219,68.126 94.668,67.227 94.992,66.668 95.334,66.219 95.893,65.535 97.134,64.185 97.584,63.735 
		98.376,62.834 98.826,62.277 99.276,61.611 99.727,60.819 100.068,60.027 100.284,59.361 100.519,58.46 100.626,57.777 
		100.734,56.427 100.734,55.185 100.626,53.96 100.519,53.168 100.393,52.611 100.284,52.161 100.177,52.827 	"/>
	<polyline fill-rule="evenodd" stroke="#000000" stroke-width="0.3605" stroke-linejoin="round" stroke-miterlimit="10" points="
		100.519,53.168 100.393,52.611 100.284,52.161 100.068,51.369 99.618,50.126 99.834,50.918 99.942,51.477 100.068,52.035 
		100.177,52.827 100.284,53.511 100.519,53.168 	"/>
	<polyline fill-rule="evenodd" stroke="#000000" stroke-width="0.3605" stroke-linejoin="round" stroke-miterlimit="10" points="
		100.177,59.126 100.284,59.811 100.393,61.376 100.393,61.935 100.284,63.177 100.177,63.861 99.834,64.977 99.492,65.769 
		99.168,66.435 98.719,67.119 98.143,67.785 97.584,68.361 96.918,68.918 95.893,69.584 94.776,70.161 93.534,70.611 93.534,76.677 
		93.876,75.327 93.984,74.985 94.219,74.427 94.668,73.527 94.992,72.969 95.334,72.519 95.893,71.834 97.134,70.485 97.584,70.035 
		98.376,69.135 98.826,68.577 99.276,67.911 99.727,67.119 100.068,66.327 100.284,65.661 100.519,64.761 100.626,64.077 
		100.734,62.727 100.734,61.485 100.626,60.261 100.519,59.469 100.393,58.911 100.284,58.46 100.177,59.126 	"/>
	<polyline fill-rule="evenodd" stroke="#000000" stroke-width="0.4807" stroke-linejoin="round" stroke-miterlimit="10" points="
		97.026,21.272 97.026,20.859 97.351,20.535 97.765,20.535 98.088,20.859 98.088,21.272 97.765,21.597 97.351,21.597 97.026,21.272 
		97.026,20.859 	"/>
	
		<line fill="none" stroke="#000000" stroke-width="0.7211" stroke-linejoin="round" stroke-miterlimit="10" x1="91.284" y1="40.011" x2="103.435" y2="40.011"/>
	<polyline fill-rule="evenodd" stroke="#000000" stroke-width="0.3605" stroke-linejoin="round" stroke-miterlimit="10" points="
		100.824,77.667 100.158,77.811 99.618,78.081 99.205,78.351 98.665,78.891 98.269,79.557 97.854,80.367 97.314,81.861 
		95.298,81.861 95.298,82.401 97.044,82.401 96.108,86.721 95.694,88.611 95.028,90.627 94.614,91.438 94.345,91.852 94.074,92.121 
		93.679,92.247 93.408,92.247 93.139,92.121 92.994,91.852 93.139,91.438 93.679,91.041 93.805,90.771 93.805,90.357 93.679,90.087 
		93.408,89.817 92.994,89.691 92.868,89.691 92.455,89.817 92.059,90.231 91.915,90.627 91.915,91.041 92.059,91.581 92.455,92.121 
		92.725,92.247 93.408,92.392 93.679,92.392 94.488,92.247 95.154,91.978 95.838,91.312 96.648,89.691 96.918,88.881 97.729,86.577 
		99.079,82.401 100.969,82.401 100.969,81.861 99.205,81.861 99.744,79.701 100.158,78.477 100.555,78.081 101.095,77.811 
		101.508,77.811 101.778,77.937 101.904,78.207 101.904,78.621 101.508,79.017 101.364,79.287 101.364,79.701 101.634,80.097 
		101.904,80.241 102.318,80.241 102.714,80.097 102.984,79.827 103.128,79.431 103.128,79.161 102.984,78.621 102.714,78.207 
		102.174,77.811 101.634,77.667 100.824,77.667 	"/>
	<path fill="none" stroke="#000000" stroke-width="0.7211" stroke-linejoin="round" stroke-miterlimit="10" d="M119.634,27.411
		h12.15 M119.634,33.71h12.15 M119.634,40.011h12.15"/>
	
		<line fill="none" stroke="#000000" stroke-width="0.4807" stroke-linejoin="round" stroke-miterlimit="10" x1="121.884" y1="25.197" x2="121.884" y2="68.361"/>
	
		<line fill="none" stroke="#000000" stroke-width="0.4807" stroke-linejoin="round" stroke-miterlimit="10" x1="115.368" y1="22.586" x2="115.368" y2="34.161"/>
	<polyline fill-rule="evenodd" stroke="#000000" stroke-width="0.4807" stroke-linejoin="round" stroke-miterlimit="10" points="
		115.368,32.811 115.368,34.161 118.968,32.577 118.968,31.227 115.368,32.811 	"/>
	<polyline fill-rule="evenodd" stroke="#000000" stroke-width="0.4807" stroke-linejoin="round" stroke-miterlimit="10" points="
		118.968,28.203 115.368,29.787 115.368,28.437 118.968,26.853 118.968,28.203 	"/>
	
		<line fill="none" stroke="#000000" stroke-width="0.4807" stroke-linejoin="round" stroke-miterlimit="10" x1="118.968" y1="26.853" x2="118.968" y2="38.535"/>
	<path fill="none" stroke="#000000" stroke-width="0.7211" stroke-linejoin="round" stroke-miterlimit="10" d="M119.634,33.71h12.15
		 M119.634,40.011h12.15"/>
	<path fill="none" stroke="#000000" stroke-width="0.7211" stroke-linejoin="round" stroke-miterlimit="10" d="M163.104,27.411
		h12.15 M163.104,33.71h12.15 M163.104,40.011h12.15"/>
	
		<line fill="none" stroke="#000000" stroke-width="0.4807" stroke-linejoin="round" stroke-miterlimit="10" x1="165.354" y1="25.197" x2="165.354" y2="68.361"/>
	<polyline fill-rule="evenodd" stroke="#000000" stroke-width="0.4807" stroke-linejoin="round" stroke-miterlimit="10" points="
		177.055,24.477 177.055,23.918 177.504,23.469 178.081,23.469 178.53,23.918 178.53,24.477 178.081,24.927 177.504,24.927 
		177.055,24.477 177.055,23.918 	"/>
	<path fill="none" stroke="#000000" stroke-width="0.7211" stroke-linejoin="round" stroke-miterlimit="10" d="M163.104,33.71h12.15
		 M163.104,40.011h12.15"/>
	<polyline fill-rule="evenodd" stroke="#000000" stroke-width="0.4807" stroke-linejoin="round" stroke-miterlimit="10" points="
		177.055,30.777 177.055,30.219 177.504,29.769 178.081,29.769 178.53,30.219 178.53,30.777 178.081,31.227 177.504,31.227 
		177.055,30.777 177.055,30.219 	"/>
	<polyline fill-rule="evenodd" stroke="#000000" stroke-width="0.4807" stroke-linejoin="round" stroke-miterlimit="10" points="
		177.055,43.376 177.055,42.819 177.504,42.369 178.081,42.369 178.53,42.819 178.53,43.376 178.081,43.827 177.504,43.827 
		177.055,43.376 177.055,42.819 	"/>
	<path fill-rule="evenodd" stroke="#000000" stroke-width="0.3605" stroke-linejoin="round" stroke-miterlimit="10" d="
		M196.134,77.757l-0.27,0.144l-0.54,0.54l0.414-0.271l0.396-0.27h0.27l0.27,0.126l0.144,0.414v0.54l-0.414,1.08l-2.7,7.561h2.304
		l-0.54-0.144v-0.271l1.206-3.096l0.27-0.954h0.27l0.684,0.684l0.54,0.126h0.27l0.666-0.126l0.414-0.27l0.54-0.414l0.54-0.54
		l0.666-1.08l0.271-0.81l0.144-0.811V79.25l-0.144-0.684l-0.271-0.396l-0.396-0.414l-0.414-0.126h-0.27l-0.54,0.126l-0.666,0.414
		l-0.684,0.54h-0.27l-0.396-0.54l-0.414-0.414l-0.396-0.126h-0.414L196.134,77.757 M198.834,78.71l-0.54,0.81l-0.396,0.667
		l-0.27,0.81l-0.144,0.684v0.54l0.144,0.811l0.27,0.54l0.396,0.27h0.144l0.396-0.144l0.414-0.396l0.396-0.684l0.27-0.666l0.27-0.81
		l0.27-0.954l0.27-1.207v-0.54l-0.126-0.414l-0.27-0.126h-0.27l-0.54,0.27L198.834,78.71"/>
	<path fill="none" stroke="#000000" stroke-width="0.3605" stroke-linejoin="round" stroke-miterlimit="10" d="M195.324,78.441
		l-0.54,0.666l-0.54,1.081l-0.396,0.954 M191.958,87.621h5.67"/>
	<polyline fill="none" stroke="#000000" stroke-width="0.4807" stroke-linejoin="round" stroke-miterlimit="10" points="
		394.801,78.909 208.555,82.527 394.801,86.146 	"/>
	<path fill="none" stroke="#000000" stroke-width="0.7211" stroke-linejoin="round" stroke-miterlimit="10" d="M305.484,27.411
		h12.15 M305.484,33.71h12.15 M305.484,40.011h12.15"/>
	
		<line fill="none" stroke="#000000" stroke-width="0.4807" stroke-linejoin="round" stroke-miterlimit="10" x1="307.734" y1="25.197" x2="307.734" y2="68.361"/>
	<path fill="none" stroke="#000000" stroke-width="0.7211" stroke-linejoin="round" stroke-miterlimit="10" d="M305.484,33.71h12.15
		 M305.484,40.011h12.15"/>
	<g>
		<polyline fill-rule="evenodd" stroke="#000000" stroke-width="0.4807" stroke-linejoin="round" stroke-miterlimit="10" points="
			319.435,24.477 319.435,23.918 319.885,23.469 320.442,23.469 320.893,23.918 320.893,24.477 320.442,24.927 319.885,24.927 
			319.435,24.477 319.435,23.918 		"/>
		<polyline fill-rule="evenodd" stroke="#000000" stroke-width="0.4807" stroke-linejoin="round" stroke-miterlimit="10" points="
			319.435,30.777 319.435,30.219 319.885,29.769 320.442,29.769 320.893,30.219 320.893,30.777 320.442,31.227 319.885,31.227 
			319.435,30.777 319.435,30.219 		"/>
		<polyline fill-rule="evenodd" stroke="#000000" stroke-width="0.4807" stroke-linejoin="round" stroke-miterlimit="10" points="
			319.435,43.376 319.435,42.819 319.885,42.369 320.442,42.369 320.893,42.819 320.893,43.376 320.442,43.827 319.885,43.827 
			319.435,43.376 319.435,42.819 		"/>
	</g>
	<polyline fill-rule="evenodd" stroke="#000000" stroke-width="0.4807" stroke-linejoin="round" stroke-miterlimit="10" points="
		290.465,56.75 292.83,70.25 292.96,71.525 292.896,72.206 292.755,72.605 292.625,72.875 292.355,73.286 291.944,73.685 
		291.61,73.89 291.135,74.031 290.735,74.095 290.4,74.095 289.72,74.031 289.386,73.955 289.115,73.826 289.18,73.415 
		289.45,73.491 289.591,73.491 289.86,73.415 290.131,73.286 290.325,73.145 290.53,72.951 290.735,72.605 290.8,72.411 
		290.865,72.065 290.865,71.936 290.8,71.601 290.595,71.19 290.465,71.061 290.195,70.855 290.055,70.791 289.655,70.65 
		289.32,70.65 288.975,70.715 288.64,70.855 288.435,70.985 288.24,71.19 288.035,71.525 287.971,71.73 287.895,72.065 
		287.895,72.335 287.971,72.746 288.101,73.08 288.306,73.415 288.64,73.761 288.91,73.955 289.386,74.16 289.72,74.225 
		290.4,74.301 290.595,74.301 291.135,74.225 291.48,74.16 291.815,74.031 292.15,73.826 292.625,73.35 292.896,72.951 
		293.101,72.335 293.165,72.065 293.229,71.46 293.101,70.25 290.735,56.75 290.465,56.75 	"/>
	<polyline fill="none" stroke="#000000" stroke-width="0.4807" stroke-linejoin="round" stroke-miterlimit="10" points="
		289.99,68.091 290.865,68.167 291.405,68.167 292.15,68.091 292.561,68.026 292.96,67.896 293.5,67.626 	"/>
	<polyline fill-rule="evenodd" stroke="#000000" stroke-width="0.4807" stroke-linejoin="round" stroke-miterlimit="10" points="
		293.5,67.626 293.976,67.151 294.104,66.946 294.31,66.611 294.45,66.276 294.516,66.071 294.58,65.801 294.645,65.326 
		294.645,64.991 294.58,64.581 294.516,64.311 294.375,63.976 294.104,63.576 293.91,63.371 293.641,63.166 293.295,62.96 
		292.96,62.831 292.69,62.766 292.085,62.691 292.021,62.691 291.405,62.766 290.865,62.896 290.595,63.036 290.195,63.306 
		289.925,63.641 289.785,63.911 289.655,64.246 289.591,64.786 289.655,65.261 289.785,65.596 289.99,65.931 290.26,66.201 
		290.865,66.611 290.8,66.676 290.131,66.341 289.86,66.136 289.515,65.801 289.18,65.326 288.975,64.786 288.91,64.311 
		288.91,63.976 288.975,63.576 289.051,63.306 289.245,62.831 289.45,62.496 289.655,62.226 289.99,61.88 290.4,61.546 
		290.735,61.341 291.005,61.211 291.61,61.071 291.88,61.071 292.561,61.146 293.024,61.276 293.5,61.481 293.976,61.751 
		294.45,62.226 294.785,62.691 295.056,63.23 295.185,63.706 295.261,64.116 295.261,64.516 295.185,65.056 295.12,65.391 
		294.99,65.866 294.785,66.276 294.58,66.611 294.31,66.946 293.976,67.281 293.5,67.626 	"/>
	<polyline fill-rule="evenodd" stroke="#000000" stroke-width="0.4807" stroke-linejoin="round" stroke-miterlimit="10" points="
		289.99,68.091 289.591,68.026 289.051,67.896 288.64,67.756 288.101,67.486 287.83,67.281 287.431,66.946 287.085,66.611 
		286.75,66.136 286.479,65.596 286.274,65.056 286.146,64.451 286.08,63.846 286.08,63.166 286.21,62.151 286.415,61.341 
		286.686,60.671 287.021,59.991 287.495,59.386 288.101,58.716 289.245,57.636 289.99,56.956 291.675,55.336 292.42,54.461 
		292.83,53.781 293.101,53.176 293.229,52.776 293.37,52.236 293.436,51.621 293.436,51.221 293.37,50.746 293.295,50.541 
		293.705,50.271 293.835,50.811 293.91,51.221 293.976,51.826 293.976,51.966 293.91,52.906 293.835,53.316 293.705,53.921 
		293.5,54.667 293.229,55.336 292.896,56.016 292.42,56.826 291.675,57.701 289.18,60.066 288.435,60.876 288.035,61.417 
		287.625,62.086 287.495,62.356 287.29,62.831 287.16,63.306 287.085,63.911 287.085,64.386 287.16,64.991 287.29,65.531 
		287.495,66.071 287.83,66.676 288.101,67.011 288.435,67.356 288.78,67.626 289.18,67.821 289.515,67.961 289.99,68.091 	"/>
	<polyline fill-rule="evenodd" stroke="#000000" stroke-width="0.4807" stroke-linejoin="round" stroke-miterlimit="10" points="
		290.465,56.75 290.195,54.861 290.131,53.586 290.131,52.571 290.26,51.286 290.4,50.681 290.595,50.141 290.865,49.666 
		291.21,49.191 291.545,48.791 292.085,48.251 292.355,48.111 292.42,48.111 292.561,48.186 292.896,48.586 293.295,49.331 
		293.705,50.271 293.295,50.541 293.165,50.206 292.96,49.936 292.755,49.871 292.69,49.871 292.42,49.936 292.355,50 
		292.15,50.141 291.88,50.411 291.405,51.081 291.005,51.891 290.8,52.431 290.595,53.381 290.53,54.126 290.53,54.591 
		290.595,55.606 290.735,56.75 290.465,56.75 	"/>
	<g>
		<polyline fill-rule="evenodd" stroke="#000000" stroke-width="0.4807" stroke-linejoin="round" stroke-miterlimit="10" points="
			200.289,52.888 200.418,53.223 200.623,53.493 200.894,53.763 201.228,53.903 201.639,53.968 201.768,53.968 202.243,53.903 
			202.578,53.763 202.848,53.568 203.053,53.298 203.183,53.028 203.258,52.618 203.258,52.413 203.183,52.078 203.053,51.808 
			202.783,51.538 202.578,51.408 202.308,51.268 201.973,51.203 201.639,51.203 201.228,51.333 201.023,51.473 200.829,51.808 
			200.623,51.603 200.688,51.138 200.829,50.728 200.958,50.458 201.293,49.918 200.894,50.328 200.688,50.598 200.559,50.868 
			200.354,51.408 200.224,51.948 200.224,52.348 200.289,52.888 		"/>
		<polyline fill="none" stroke="#000000" stroke-width="0.4807" stroke-linejoin="round" stroke-miterlimit="10" points="
			201.293,49.918 201.768,49.583 202.179,49.378 202.578,49.249 202.988,49.173 		"/>
		<polyline fill-rule="evenodd" stroke="#000000" stroke-width="0.4807" stroke-linejoin="round" stroke-miterlimit="10" points="
			202.038,60.113 202.848,59.638 203.798,59.033 204.803,58.223 205.688,57.348 206.088,56.808 206.563,56.128 206.833,55.588 
			207.104,54.983 207.233,54.508 207.309,54.033 207.373,53.428 207.373,52.953 207.309,52.283 207.168,51.808 206.963,51.268 
			206.769,50.868 206.423,50.393 206.088,50.058 205.688,49.788 205.418,49.583 204.943,49.378 204.468,49.249 203.863,49.173 
			202.988,49.173 203.798,49.313 204.133,49.443 204.533,49.712 204.943,50.188 205.148,50.522 205.343,51.062 205.483,51.743 
			205.548,52.553 205.548,53.298 205.483,54.378 205.343,55.113 205.213,55.728 205.008,56.398 204.673,57.143 204.403,57.618 
			203.993,58.158 203.528,58.698 203.258,58.968 202.783,59.368 202.243,59.778 201.833,60.048 201.023,60.513 199.749,61.193 
			199.749,61.258 200.623,60.858 202.038,60.113 		"/>
		<polyline fill-rule="evenodd" stroke="#000000" stroke-width="0.4807" stroke-linejoin="round" stroke-miterlimit="10" points="
			208.453,50.933 208.518,51.062 208.658,51.268 208.853,51.333 209.059,51.333 209.264,51.268 209.393,51.062 209.469,50.933 
			209.469,50.663 209.393,50.522 209.264,50.328 209.059,50.252 208.853,50.252 208.658,50.328 208.518,50.522 208.453,50.663 
			208.453,50.933 		"/>
		<polyline fill-rule="evenodd" stroke="#000000" stroke-width="0.4807" stroke-linejoin="round" stroke-miterlimit="10" points="
			208.453,54.648 208.518,54.778 208.658,54.983 208.853,55.048 209.059,55.048 209.264,54.983 209.393,54.778 209.469,54.648 
			209.469,54.378 209.393,54.238 209.264,54.033 209.059,53.968 208.853,53.968 208.658,54.033 208.518,54.238 208.453,54.378 
			208.453,54.648 		"/>
	</g>
	<g>
		
			<polyline fill="none" stroke="#000000" stroke-width="0.4807" stroke-linecap="round" stroke-linejoin="round" stroke-miterlimit="10" points="
			187.559,116.464 188.034,116.13 188.444,115.925 188.844,115.795 189.254,115.719 		"/>
		
			<polyline fill-rule="evenodd" stroke="#000000" stroke-width="0.4807" stroke-linecap="round" stroke-linejoin="round" stroke-miterlimit="10" points="
			186.555,119.435 186.684,119.77 186.889,120.039 187.159,120.31 187.494,120.449 187.904,120.515 188.034,120.515 
			188.509,120.449 188.844,120.31 189.114,120.114 189.319,119.845 189.449,119.575 189.524,119.164 189.524,118.959 
			189.449,118.624 189.319,118.354 189.049,118.084 188.844,117.955 188.574,117.814 188.239,117.749 187.904,117.749 
			187.494,117.879 187.289,118.02 187.095,118.354 186.889,118.149 186.954,117.685 187.095,117.274 187.224,117.005 
			187.559,116.464 187.159,116.875 186.954,117.145 186.824,117.415 186.619,117.955 186.49,118.495 186.49,118.895 
			186.555,119.435 		"/>
		
			<polyline fill-rule="evenodd" stroke="#000000" stroke-width="0.4807" stroke-linecap="round" stroke-linejoin="round" stroke-miterlimit="10" points="
			188.304,126.659 189.114,126.185 190.064,125.579 191.069,124.77 191.955,123.895 192.354,123.354 192.829,122.675 
			193.099,122.135 193.369,121.529 193.499,121.055 193.574,120.579 193.639,119.975 193.639,119.499 193.574,118.829 
			193.434,118.354 193.229,117.814 193.034,117.415 192.689,116.939 192.354,116.604 191.955,116.335 191.685,116.13 
			191.209,115.925 190.734,115.795 190.129,115.719 189.254,115.719 190.064,115.859 190.399,115.989 190.799,116.259 
			191.209,116.734 191.415,117.069 191.609,117.609 191.749,118.29 191.814,119.1 191.814,119.845 191.749,120.925 191.609,121.659 
			191.479,122.274 191.274,122.944 190.939,123.689 190.669,124.165 190.259,124.705 189.794,125.245 189.524,125.515 
			189.049,125.914 188.509,126.325 188.099,126.595 187.289,127.06 186.015,127.739 186.015,127.805 186.889,127.405 
			188.304,126.659 		"/>
		
			<polyline fill-rule="evenodd" stroke="#000000" stroke-width="0.4807" stroke-linecap="round" stroke-linejoin="round" stroke-miterlimit="10" points="
			194.719,117.479 194.784,117.609 194.924,117.814 195.119,117.879 195.324,117.879 195.529,117.814 195.659,117.609 
			195.734,117.479 195.734,117.21 195.659,117.069 195.529,116.875 195.324,116.799 195.119,116.799 194.924,116.875 
			194.784,117.069 194.719,117.21 194.719,117.479 		"/>
		
			<polyline fill-rule="evenodd" stroke="#000000" stroke-width="0.4807" stroke-linecap="round" stroke-linejoin="round" stroke-miterlimit="10" points="
			194.719,121.194 194.784,121.324 194.924,121.529 195.119,121.595 195.324,121.595 195.529,121.529 195.659,121.324 
			195.734,121.194 195.734,120.925 195.659,120.784 195.529,120.579 195.324,120.515 195.119,120.515 194.924,120.579 
			194.784,120.784 194.719,120.925 194.719,121.194 		"/>
	</g>
</g>
<g id="Layer_2">
	
		<path fill-rule="evenodd" stroke="#000000" stroke-width="0.3605" stroke-linecap="round" stroke-linejoin="round" stroke-miterlimit="10" d="
		M102.984,146.883c1.506,0.964,2.667,1.651,4.369,2.161c1.401,0.421,2.949,0.676,4.406,0.676c1.46,0,3.017-0.252,4.419-0.676
		c1.694-0.512,2.855-1.201,4.355-2.161c-1.491,0.837-2.616,1.43-4.274,1.8c-1.453,0.323-3.012,0.458-4.5,0.458
		c-1.385,0-2.904-0.108-4.252-0.406C105.738,148.343,104.572,147.773,102.984,146.883"/>
	
		<path fill-rule="evenodd" stroke="#000000" stroke-width="0.3605" stroke-linecap="round" stroke-linejoin="round" stroke-miterlimit="10" d="
		M103.326,134.102c5.998,2.891,12.218,2.891,18.216,0C115.845,136.439,109.023,136.439,103.326,134.102"/>
	
		<path fill-rule="evenodd" stroke="#000000" stroke-width="0.3605" stroke-linecap="round" stroke-linejoin="round" stroke-miterlimit="10" d="
		M131.334,146.931c9.433,5.39,22.569,5.391,32.004,0C153.505,153.021,140.877,152.844,131.334,146.931"/>
	
		<path fill-rule="evenodd" stroke="#000000" stroke-width="0.3605" stroke-linecap="round" stroke-linejoin="round" stroke-miterlimit="10" d="
		M129.893,50.931c9.858,5.39,23.586,5.391,33.446,0C153.062,57.021,139.866,56.844,129.893,50.931"/>
	
		<path fill-rule="evenodd" stroke="#000000" stroke-width="0.3605" stroke-linecap="round" stroke-linejoin="round" stroke-miterlimit="10" d="
		M131.334,132.931c9.433,4.359,22.569,4.36,32.004,0C153.505,137.857,140.877,137.714,131.334,132.931"/>
	
		<path fill-rule="evenodd" stroke="#000000" stroke-width="0.3605" stroke-linecap="round" stroke-linejoin="round" stroke-miterlimit="10" d="
		M131.334,114.963c10.236-5.906,25.159-5.947,35.37,0C156.134,108.398,142.098,108.34,131.334,114.963"/>
	
		<path fill-rule="evenodd" stroke="#000000" stroke-width="0.3605" stroke-linecap="round" stroke-linejoin="round" stroke-miterlimit="10" d="
		M131.334,30.963c9.104-5.906,22.376-5.947,31.458,0C153.391,24.398,140.907,24.34,131.334,30.963"/>
	
		<path fill-rule="evenodd" stroke="#000000" stroke-width="0.3605" stroke-linecap="round" stroke-linejoin="round" stroke-miterlimit="10" d="
		M131.334,23.963c9.104-5.906,22.376-5.947,31.458,0C153.391,17.398,140.907,17.34,131.334,23.963"/>
	
		<path fill-rule="evenodd" stroke="#000000" stroke-width="0.3605" stroke-linecap="round" stroke-linejoin="round" stroke-miterlimit="10" d="
		M135.042,123.873c9.749-3.994,26.263-3.248,35.928,0C160.157,119.817,145.802,118.954,135.042,123.873"/>
	
		<path fill-rule="evenodd" stroke="#000000" stroke-width="0.3605" stroke-linecap="round" stroke-linejoin="round" stroke-miterlimit="10" d="
		M174.805,146.931c10.592,5.291,22.3,7.041,34.038,7.343c11.521,0.297,23.05,0.145,34.575,0.145c11.62,0,26.317-0.274,37.869-1.62
		c9.209-1.072,15.294-2.913,24.09-5.867c-11.281,3.889-20.013,5.981-31.883,7.009c-11.429,0.989-25.944,1.289-37.414,1.289
		c-11.631,0-23.276,0.205-34.869-0.918C192.004,153.419,183.057,151.161,174.805,146.931"/>
	
		<path fill-rule="evenodd" stroke="#000000" stroke-width="0.3605" stroke-linecap="round" stroke-linejoin="round" stroke-miterlimit="10" d="
		M174.139,136.123c4.512,3.41,7.418,6.191,12.965,8.081c5.436,1.851,13.253,2.811,19.044,3.224
		c11.485,0.819,23.056,0.486,34.567,0.574c12.213,0.095,24.562-0.144,36.629-1.95c10.565-1.581,22.68-5.569,32.03-10.241
		c-10.342,5.247-23.724,9.579-35.509,11.074c-12.172,1.544-24.576,1.924-36.862,1.824c-11.478-0.095-23.092,0.295-34.483-1.191
		c-5.132-0.669-12.215-1.787-16.971-3.656C180.61,141.92,178.213,139.254,174.139,136.123"/>
	
		<path fill-rule="evenodd" stroke="#000000" stroke-width="0.3605" stroke-linecap="round" stroke-linejoin="round" stroke-miterlimit="10" d="
		M181.072,127.534c11.462-3.896,23.406-4.774,35.418-5.077c11.862-0.3,23.77-0.163,35.635-0.066
		c12.088,0.1,24.148,0.363,36.198,1.385c8.07,0.685,16.106,1.97,24.005,3.759c-11.87-2.785-23.875-4.189-36.021-5.015
		c-11.812-0.803-23.707-0.942-35.544-0.942c-11.995,0-24.068-0.23-36.021,0.977C196.655,123.37,188.759,124.828,181.072,127.534"/>
	
		<path fill-rule="evenodd" stroke="#000000" stroke-width="0.3605" stroke-linecap="round" stroke-linejoin="round" stroke-miterlimit="10" d="
		M175.164,115.317c10.977-4.933,22.595-7.296,34.545-8.247c11.684-0.929,23.558-0.621,35.268-0.403
		c11.84,0.22,23.579,0.696,35.318,2.346c9.332,1.311,18.46,3.784,27.275,7.079c-11.249-4.312-22.897-7.104-34.865-8.496
		c-11.624-1.353-23.356-1.782-35.054-1.782c-11.848,0-23.713-0.151-35.471,1.584C192.814,108.78,183.769,111.356,175.164,115.317"/>
	
		<path fill-rule="evenodd" stroke="#000000" stroke-width="0.3605" stroke-linecap="round" stroke-linejoin="round" stroke-miterlimit="10" d="
		M181.555,22.677c10.728-5.022,22.05-8.469,33.793-10.092c11.212-1.549,22.521-1.639,33.822-1.519
		c11.404,0.122,22.701,1.148,33.82,3.751c7.615,1.783,14.973,4.548,22.044,7.859c-10.714-5.131-22.022-8.843-33.792-10.595
		c-11.24-1.673-22.478-1.929-33.822-1.808c-11.379,0.122-22.788,1.403-33.822,4.218C195.968,16.438,188.647,19.281,181.555,22.677"
		/>
	
		<path fill-rule="evenodd" stroke="#000000" stroke-width="0.3605" stroke-linecap="round" stroke-linejoin="round" stroke-miterlimit="10" d="
		M181.555,28.977c10.729-5.022,22.05-8.465,33.793-10.092c11.211-1.553,22.522-1.639,33.822-1.519
		c11.405,0.122,22.7,1.151,33.82,3.751c7.614,1.781,14.974,4.549,22.044,7.859c-10.714-5.131-22.022-8.843-33.792-10.595
		c-11.239-1.673-22.478-1.929-33.822-1.808c-11.377,0.122-22.789,1.4-33.822,4.218C195.969,22.741,188.648,25.581,181.555,28.977"/>
	
		<path fill-rule="evenodd" stroke="#000000" stroke-width="0.3605" stroke-linecap="round" stroke-linejoin="round" stroke-miterlimit="10" d="
		M170.07,50.572c4.732,3.267,9.892,7.245,15.517,8.861c5.661,1.627,11.41,2.404,17.293,2.845c5.598,0.419,11.278,0.36,16.89,0.289
		c6.064-0.076,12.132,0.001,18.195-0.1c11.832-0.198,24.709-0.365,36.436-2.037c11.145-1.59,21.373-6.334,31.452-11.16
		c-10.581,5.156-21.472,10.199-33.244,11.764c-11.659,1.551-24.491,2.084-36.258,2.183c-11.651,0.097-23.375,0.472-34.994-0.544
		c-5.458-0.477-11.099-1.34-16.261-3.146C179.656,57.625,174.73,53.847,170.07,50.572"/>
	
		<path fill-rule="evenodd" stroke="#000000" stroke-width="0.3605" stroke-linecap="round" stroke-linejoin="round" stroke-miterlimit="10" d="
		M191.004,49.641c17.449-71.652,196.254-61.652,221.663,5.532C382.667-11.178,210.833-20.678,191.004,49.641"/>
</g>
<g id="Layer_3">
	
		<path fill-rule="evenodd" stroke="#000000" stroke-width="0.4807" stroke-linecap="round" stroke-linejoin="round" stroke-miterlimit="10" d="
		M95.658,146.985c1.919,0,3.593-0.751,4.85-2.204c1.306-1.51,0.557-3.642-1.465-3.844c-1.831-0.183-3.698,0.842-4.838,2.204
		c-0.586,0.699-0.792,1.536-0.579,2.423C93.851,146.497,94.84,146.826,95.658,146.985"/>
	
		<path fill-rule="evenodd" stroke="#000000" stroke-width="0.4807" stroke-linecap="round" stroke-linejoin="round" stroke-miterlimit="10" d="
		M95.658,134.385c1.92,0,3.592-0.75,4.85-2.204c1.307-1.511,0.556-3.64-1.465-3.844c-1.829-0.185-3.699,0.844-4.838,2.204
		C92.839,132.17,93.705,134.009,95.658,134.385"/>
	
		<path fill-rule="evenodd" stroke="#000000" stroke-width="0.4807" stroke-linecap="round" stroke-linejoin="round" stroke-miterlimit="10" d="
		M95.658,128.085c1.92,0,3.592-0.75,4.85-2.204c1.307-1.511,0.557-3.64-1.465-3.844c-1.829-0.185-3.699,0.844-4.838,2.204
		C92.839,125.87,93.705,127.709,95.658,128.085"/>
	
		<path fill-rule="evenodd" stroke="#000000" stroke-width="0.4807" stroke-linecap="round" stroke-linejoin="round" stroke-miterlimit="10" d="
		M95.658,30.435c1.919,0,3.592-0.75,4.85-2.204c1.307-1.511,0.557-3.641-1.465-3.844c-1.83-0.184-3.698,0.843-4.838,2.204
		C92.838,28.221,93.706,30.057,95.658,30.435"/>
	
		<path fill-rule="evenodd" stroke="#000000" stroke-width="0.4807" stroke-linecap="round" stroke-linejoin="round" stroke-miterlimit="10" d="
		M95.658,39.885c1.92,0,3.592-0.751,4.85-2.204c1.307-1.511,0.557-3.641-1.465-3.844c-1.829-0.184-3.699,0.844-4.838,2.204
		C92.838,37.671,93.706,39.507,95.658,39.885"/>
	
		<path fill-rule="evenodd" stroke="#000000" stroke-width="0.4807" stroke-linecap="round" stroke-linejoin="round" stroke-miterlimit="10" d="
		M95.658,52.485c1.919,0,3.592-0.751,4.85-2.204c1.307-1.51,0.557-3.641-1.465-3.844c-1.83-0.184-3.698,0.844-4.838,2.204
		c-0.586,0.7-0.792,1.536-0.579,2.424C93.85,51.997,94.841,52.326,95.658,52.485"/>
	
		<path fill-rule="evenodd" stroke="#000000" stroke-width="0.4807" stroke-linecap="round" stroke-linejoin="round" stroke-miterlimit="10" d="
		M124.008,146.985c1.918,0,3.593-0.751,4.849-2.204c1.307-1.51,0.557-3.642-1.465-3.844c-1.831-0.184-3.697,0.842-4.838,2.204
		C121.188,144.772,122.056,146.606,124.008,146.985"/>
	
		<path fill-rule="evenodd" stroke="#000000" stroke-width="0.4807" stroke-linecap="round" stroke-linejoin="round" stroke-miterlimit="10" d="
		M124.008,134.385c1.92,0,3.592-0.75,4.849-2.204c1.307-1.511,0.556-3.64-1.465-3.844c-1.828-0.185-3.699,0.844-4.838,2.204
		C121.189,132.17,122.055,134.009,124.008,134.385"/>
	
		<path fill-rule="evenodd" stroke="#000000" stroke-width="0.4807" stroke-linecap="round" stroke-linejoin="round" stroke-miterlimit="10" d="
		M131.658,131.235c1.919,0,3.593-0.751,4.85-2.204c1.306-1.51,0.557-3.642-1.465-3.844c-1.831-0.183-3.698,0.842-4.838,2.204
		c-0.586,0.699-0.792,1.536-0.579,2.423C129.851,130.747,130.84,131.076,131.658,131.235"/>
	
		<path fill-rule="evenodd" stroke="#000000" stroke-width="0.4807" stroke-linecap="round" stroke-linejoin="round" stroke-miterlimit="10" d="
		M124.008,121.785c1.918,0,3.593-0.751,4.849-2.204c1.307-1.51,0.557-3.642-1.465-3.844c-1.83-0.183-3.698,0.843-4.838,2.204
		C121.188,119.572,122.056,121.406,124.008,121.785"/>
	
		<path fill-rule="evenodd" stroke="#000000" stroke-width="0.4807" stroke-linecap="round" stroke-linejoin="round" stroke-miterlimit="10" d="
		M124.008,27.285c1.919,0,3.592-0.75,4.849-2.204c1.307-1.511,0.557-3.641-1.465-3.844c-1.83-0.184-3.698,0.843-4.838,2.204
		C121.188,25.07,122.056,26.907,124.008,27.285"/>
	
		<path fill-rule="evenodd" stroke="#000000" stroke-width="0.4807" stroke-linecap="round" stroke-linejoin="round" stroke-miterlimit="10" d="
		M124.008,33.584c1.919,0,3.592-0.75,4.849-2.204c1.307-1.51,0.557-3.641-1.465-3.844c-1.829-0.184-3.699,0.843-4.838,2.204
		C121.188,31.371,122.055,33.207,124.008,33.584"/>
	
		<path fill-rule="evenodd" stroke="#000000" stroke-width="0.4807" stroke-linecap="round" stroke-linejoin="round" stroke-miterlimit="10" d="
		M124.008,49.334c1.919,0,3.592-0.75,4.849-2.204c1.307-1.51,0.557-3.641-1.465-3.844c-1.829-0.184-3.699,0.843-4.838,2.204
		C121.188,47.121,122.055,48.957,124.008,49.334"/>
	
		<path fill-rule="evenodd" stroke="#000000" stroke-width="0.4807" stroke-linecap="round" stroke-linejoin="round" stroke-miterlimit="10" d="
		M167.479,146.985c1.918,0,3.593-0.751,4.85-2.204c1.307-1.51,0.556-3.642-1.466-3.844c-1.83-0.183-3.698,0.842-4.838,2.204
		C164.658,144.772,165.526,146.606,167.479,146.985"/>
	
		<path fill-rule="evenodd" stroke="#000000" stroke-width="0.4807" stroke-linecap="round" stroke-linejoin="round" stroke-miterlimit="10" d="
		M167.479,134.385c1.92,0,3.592-0.75,4.85-2.204c1.307-1.511,0.555-3.64-1.466-3.844c-1.828-0.185-3.7,0.844-4.838,2.204
		C164.66,132.171,165.524,134.009,167.479,134.385"/>
	
		<path fill-rule="evenodd" stroke="#000000" stroke-width="0.4807" stroke-linecap="round" stroke-linejoin="round" stroke-miterlimit="10" d="
		M175.128,131.235c1.918,0,3.593-0.751,4.849-2.204c1.307-1.51,0.557-3.642-1.465-3.844c-1.831-0.184-3.697,0.842-4.838,2.204
		C172.308,129.022,173.176,130.856,175.128,131.235"/>
	
		<path fill-rule="evenodd" stroke="#000000" stroke-width="0.4807" stroke-linecap="round" stroke-linejoin="round" stroke-miterlimit="10" d="
		M167.479,121.785c1.918,0,3.593-0.751,4.85-2.204c1.306-1.51,0.556-3.642-1.466-3.844c-1.829-0.183-3.698,0.843-4.838,2.204
		C164.658,119.572,165.526,121.406,167.479,121.785"/>
	
		<path fill-rule="evenodd" stroke="#000000" stroke-width="0.4807" stroke-linecap="round" stroke-linejoin="round" stroke-miterlimit="10" d="
		M167.479,27.285c1.919,0,3.592-0.75,4.85-2.204c1.307-1.511,0.556-3.642-1.466-3.844c-1.829-0.184-3.699,0.843-4.838,2.204
		C164.659,25.071,165.525,26.907,167.479,27.285"/>
	
		<path fill-rule="evenodd" stroke="#000000" stroke-width="0.4807" stroke-linecap="round" stroke-linejoin="round" stroke-miterlimit="10" d="
		M167.479,33.584c1.919,0,3.592-0.75,4.85-2.204c1.307-1.511,0.556-3.642-1.466-3.844c-1.828-0.184-3.699,0.843-4.838,2.204
		C164.659,31.371,165.525,33.207,167.479,33.584"/>
	
		<path fill-rule="evenodd" stroke="#000000" stroke-width="0.4807" stroke-linecap="round" stroke-linejoin="round" stroke-miterlimit="10" d="
		M167.479,49.334c1.919,0,3.592-0.75,4.85-2.204c1.307-1.511,0.556-3.642-1.466-3.844c-1.828-0.184-3.699,0.843-4.838,2.204
		C164.659,47.121,165.525,48.957,167.479,49.334"/>
	
		<path fill-rule="evenodd" stroke="#000000" stroke-width="0.4807" stroke-linecap="round" stroke-linejoin="round" stroke-miterlimit="10" d="
		M197.521,137.535c1.918,0,3.593-0.751,4.85-2.204c1.306-1.51,0.556-3.642-1.466-3.844c-1.829-0.183-3.698,0.843-4.838,2.204
		C194.7,135.322,195.568,137.156,197.521,137.535"/>
	
		<path fill-rule="evenodd" stroke="#000000" stroke-width="0.4807" stroke-linecap="round" stroke-linejoin="round" stroke-miterlimit="10" d="
		M220.669,49.334c1.918,0,3.593-0.75,4.849-2.204c1.305-1.511,0.558-3.641-1.465-3.844c-1.829-0.184-3.698,0.844-4.839,2.204
		C217.847,47.121,218.717,48.957,220.669,49.334"/>
	
		<path fill-rule="evenodd" stroke="#000000" stroke-width="0.4807" stroke-linecap="round" stroke-linejoin="round" stroke-miterlimit="10" d="
		M237.931,27.285c1.919,0,3.593-0.751,4.85-2.204c1.307-1.511,0.555-3.641-1.466-3.844c-1.829-0.184-3.699,0.843-4.838,2.204
		C235.111,25.071,235.977,26.907,237.931,27.285"/>
	
		<path fill-rule="evenodd" stroke="#000000" stroke-width="0.4807" stroke-linecap="round" stroke-linejoin="round" stroke-miterlimit="10" d="
		M243.492,115.485c1.919,0,3.593-0.751,4.85-2.204c1.307-1.51,0.557-3.642-1.466-3.844c-1.83-0.183-3.698,0.842-4.838,2.204
		C240.672,113.272,241.54,115.105,243.492,115.485"/>
	
		<path fill-rule="evenodd" stroke="#000000" stroke-width="0.4807" stroke-linecap="round" stroke-linejoin="round" stroke-miterlimit="10" d="
		M264.229,27.285c1.919,0,3.593-0.751,4.85-2.204c1.307-1.511,0.556-3.642-1.466-3.844c-1.829-0.183-3.698,0.843-4.838,2.204
		C261.408,25.071,262.275,26.907,264.229,27.285"/>
	
		<path fill-rule="evenodd" stroke="#000000" stroke-width="0.4807" stroke-linecap="round" stroke-linejoin="round" stroke-miterlimit="10" d="
		M282.462,49.334c1.92,0,3.592-0.75,4.85-2.204c1.307-1.51,0.558-3.641-1.465-3.844c-1.83-0.184-3.698,0.844-4.839,2.204
		C279.642,47.12,280.511,48.957,282.462,49.334"/>
	
		<path fill-rule="evenodd" stroke="#000000" stroke-width="0.4807" stroke-linecap="round" stroke-linejoin="round" stroke-miterlimit="10" d="
		M309.858,146.985c1.919,0,3.593-0.751,4.85-2.204c1.307-1.51,0.557-3.642-1.466-3.844c-1.83-0.183-3.698,0.842-4.838,2.204
		c-0.586,0.699-0.793,1.536-0.578,2.423C308.051,146.498,309.04,146.826,309.858,146.985"/>
	
		<path fill-rule="evenodd" stroke="#000000" stroke-width="0.4807" stroke-linecap="round" stroke-linejoin="round" stroke-miterlimit="10" d="
		M309.858,134.385c1.92,0,3.592-0.75,4.85-2.204c1.308-1.511,0.556-3.641-1.466-3.844c-1.827-0.184-3.699,0.844-4.838,2.204
		C307.039,132.171,307.904,134.009,309.858,134.385"/>
	
		<path fill-rule="evenodd" stroke="#000000" stroke-width="0.4807" stroke-linecap="round" stroke-linejoin="round" stroke-miterlimit="10" d="
		M317.509,131.235c1.918,0,3.593-0.751,4.85-2.204c1.307-1.51,0.556-3.642-1.466-3.844c-1.83-0.183-3.698,0.842-4.838,2.204
		C314.688,129.022,315.556,130.856,317.509,131.235"/>
	
		<path fill-rule="evenodd" stroke="#000000" stroke-width="0.4807" stroke-linecap="round" stroke-linejoin="round" stroke-miterlimit="10" d="
		M309.858,121.785c1.919,0,3.593-0.751,4.85-2.204c1.307-1.51,0.557-3.642-1.466-3.844c-1.829-0.183-3.698,0.843-4.838,2.204
		c-0.586,0.7-0.792,1.536-0.578,2.424C308.051,121.298,309.041,121.626,309.858,121.785"/>
	
		<path fill-rule="evenodd" stroke="#000000" stroke-width="0.4807" stroke-linecap="round" stroke-linejoin="round" stroke-miterlimit="10" d="
		M309.858,27.285c1.919,0,3.593-0.75,4.85-2.204c1.307-1.511,0.557-3.642-1.466-3.844c-1.828-0.183-3.699,0.843-4.838,2.204
		C307.039,25.071,307.905,26.907,309.858,27.285"/>
	
		<path fill-rule="evenodd" stroke="#000000" stroke-width="0.4807" stroke-linecap="round" stroke-linejoin="round" stroke-miterlimit="10" d="
		M309.858,33.584c1.919,0,3.592-0.75,4.85-2.204c1.307-1.511,0.557-3.642-1.466-3.844c-1.828-0.183-3.699,0.843-4.838,2.204
		C307.039,31.371,307.905,33.207,309.858,33.584"/>
	
		<path fill-rule="evenodd" stroke="#000000" stroke-width="0.4807" stroke-linecap="round" stroke-linejoin="round" stroke-miterlimit="10" d="
		M309.858,49.334c1.919,0,3.592-0.75,4.85-2.204c1.307-1.511,0.557-3.642-1.466-3.844c-1.828-0.183-3.699,0.843-4.838,2.204
		C307.039,47.121,307.905,48.957,309.858,49.334"/>
	
		<path fill-rule="evenodd" stroke="#000000" stroke-width="0.4807" stroke-linecap="round" stroke-linejoin="round" stroke-miterlimit="10" d="
		M330.809,153.285c1.918,0,3.593-0.751,4.85-2.204c1.307-1.51,0.557-3.642-1.466-3.844c-1.829-0.183-3.698,0.842-4.838,2.204
		c-0.587,0.701-0.791,1.535-0.579,2.424C328.998,152.798,329.993,153.127,330.809,153.285"/>
	
		<path fill-rule="evenodd" stroke="#000000" stroke-width="0.4807" stroke-linecap="round" stroke-linejoin="round" stroke-miterlimit="10" d="
		M351.148,65.084c1.919,0,3.592-0.75,4.85-2.204c1.307-1.511,0.557-3.642-1.466-3.844c-1.828-0.183-3.699,0.843-4.838,2.204
		C348.329,62.871,349.195,64.707,351.148,65.084"/>
	<g>
		
			<line fill="none" stroke="#000000" stroke-width="0.7211" stroke-linejoin="round" stroke-miterlimit="10" x1="362.11" y1="40.011" x2="374.261" y2="40.011"/>
		
			<line fill="none" stroke="#000000" stroke-width="0.4807" stroke-linejoin="round" stroke-miterlimit="10" x1="364.36" y1="40.947" x2="364.36" y2="95.467"/>
		
			<path fill-rule="evenodd" stroke="#000000" stroke-width="0.4807" stroke-linecap="round" stroke-linejoin="round" stroke-miterlimit="10" d="
			M366.484,43.035c1.919,0,3.593-0.75,4.85-2.204c1.307-1.511,0.557-3.642-1.466-3.844c-1.829-0.183-3.699,0.843-4.838,2.204
			C363.665,40.821,364.531,42.657,366.484,43.035"/>
	</g>
	<g>
		
			<line fill="none" stroke="#000000" stroke-width="0.4807" stroke-linejoin="round" stroke-miterlimit="10" x1="375.881" y1="127.257" x2="375.881" y2="97.683"/>
		
			<path fill-rule="evenodd" stroke="#000000" stroke-width="0.4807" stroke-linecap="round" stroke-linejoin="round" stroke-miterlimit="10" d="
			M370.354,131.235c1.919,0,3.593-0.751,4.85-2.204c1.307-1.511,0.557-3.642-1.466-3.844c-1.83-0.183-3.698,0.842-4.838,2.204
			c-0.586,0.699-0.793,1.536-0.578,2.423C368.547,130.748,369.536,131.076,370.354,131.235"/>
	</g>
	<g>
		
			<line fill="none" stroke="#000000" stroke-width="0.7211" stroke-linejoin="round" stroke-miterlimit="10" x1="384.009" y1="40.011" x2="396.158" y2="40.011"/>
		
			<line fill="none" stroke="#000000" stroke-width="0.4807" stroke-linejoin="round" stroke-miterlimit="10" x1="386.259" y1="40.947" x2="386.259" y2="94.497"/>
		
			<path fill-rule="evenodd" stroke="#000000" stroke-width="0.4807" stroke-linecap="round" stroke-linejoin="round" stroke-miterlimit="10" d="
			M388.383,43.035c1.918,0,3.594-0.75,4.849-2.204c1.306-1.512,0.558-3.641-1.465-3.844c-1.83-0.184-3.698,0.844-4.839,2.204
			C385.561,40.82,386.431,42.658,388.383,43.035"/>
	</g>
	
		<path fill-rule="evenodd" stroke="#000000" stroke-width="0.4807" stroke-linecap="round" stroke-linejoin="round" stroke-miterlimit="10" d="
		M403.279,65.084c1.918,0,3.594-0.75,4.849-2.204c1.305-1.511,0.558-3.641-1.465-3.844c-1.829-0.184-3.698,0.844-4.839,2.204
		C400.457,62.871,401.327,64.707,403.279,65.084"/>
</g>
</svg>
